<?xml version="1.0" encoding="UTF-8" standalone="no"?>
<!DOCTYPE svg PUBLIC "-//W3C//DTD SVG 1.1//EN" "http://www.w3.org/Graphics/SVG/1.1/DTD/svg11.dtd">
<svg width="800" height="1000" viewBox="0 0 800 1000" xmlns="http://www.w3.org/2000/svg">
    <style>
        .box {
            fill: #f0f4f8;
            stroke: #3f72af;
            stroke-width: 2;
            rx: 10;
            ry: 10;
        }
        
        .decision {
            fill: #fff0f7;
            stroke: #d81b60;
            stroke-width: 2;
        }
        
        .text {
            font-family: 'Arial', sans-serif;
            font-size: 14px;
            text-anchor: middle;
            dominant-baseline: middle;
        }
        
        .arrow {
            stroke: #333;
            stroke-width: 1.5;
            fill: none;
            marker-end: url(#arrow);
        }
        
        .label {
            font-family: 'Arial', sans-serif;
            font-size: 12px;
            text-anchor: middle;
            dominant-baseline: middle;
            fill: #555;
        }
        
        .category-network {
            fill: #e3f2fd;
            stroke: #2196f3;
        }
        
        .category-api {
            fill: #f9fbe7;
            stroke: #cddc39;
        }
        
        .category-auth {
            fill: #fff8e1;
            stroke: #ffc107;
        }
        
        .category-data {
            fill: #e8f5e9;
            stroke: #4caf50;
        }
        
        .category-app {
            fill: #f3e5f5;
            stroke: #9c27b0;
        }
        
        .category-unknown {
            fill: #fafafa;
            stroke: #9e9e9e;
        }
        
        .severity-critical {
            fill: #ffebee;
            stroke: #f44336;
        }
        
        .severity-error {
            fill: #fff3e0;
            stroke: #ff9800;
        }
        
        .severity-warning {
            fill: #fffde7;
            stroke: #ffeb3b;
        }
        
        .severity-info {
            fill: #e1f5fe;
            stroke: #03a9f4;
        }
    </style>
    
    <defs>
        <marker id="arrow" viewBox="0 0 10 10" refX="5" refY="5" markerWidth="6" markerHeight="6" orient="auto">
            <path d="M 0 0 L 10 5 L 0 10 z" fill="#333" />
        </marker>
    </defs>
    
    <!-- Start -->
    <rect x="350" y="30" width="120" height="50" class="box" />
    <text x="410" y="55" class="text">Fehler tritt auf</text>
    
    <!-- Error Type Decision -->
    <polygon points="410,130 460,180 410,230 360,180" class="decision" />
    <text x="410" y="180" class="text">Fehlertyp?</text>
    
    <!-- Network Error -->
    <rect x="100" y="260" width="120" height="50" class="box category-network" />
    <text x="160" y="285" class="text">Verbindung pr端fen</text>
    
    <!-- API Error -->
    <rect x="250" y="260" width="120" height="50" class="box category-api" />
    <text x="310" y="285" class="text">API-Antwort pr端fen</text>
    
    <!-- Auth Error -->
    <rect x="400" y="260" width="120" height="50" class="box category-auth" />
    <text x="460" y="285" class="text">Token pr端fen</text>
    
    <!-- Data Error -->
    <rect x="550" y="260" width="120" height="50" class="box category-data" />
    <text x="610" y="285" class="text">Datenvalidierung</text>
    
    <!-- App Error -->
    <rect x="175" y="340" width="120" height="50" class="box category-app" />
    <text x="235" y="365" class="text">Zustand pr端fen</text>
    
    <!-- Unknown Error -->
    <rect x="475" y="340" width="120" height="50" class="box category-unknown" />
    <text x="535" y="365" class="text">Generische Behandlung</text>
    
    <!-- Online Decision -->
    <polygon points="160,420 210,470 160,520 110,470" class="decision" />
    <text x="160" y="470" class="text">Online?</text>
    
    <!-- Retry -->
    <rect x="60" y="550" width="120" height="50" class="box" />
    <text x="120" y="575" class="text">Wiederholung mit Backoff</text>
    
    <!-- Offline Queue -->
    <rect x="210" y="550" width="120" height="50" class="box" />
    <text x="270" y="575" class="text">In Offline-Warteschlange</text>
    
    <!-- Status Code Decision -->
    <polygon points="310,420 360,470 310,520 260,470" class="decision" />
    <text x="310" y="470" class="text">Status-Code?</text>
    
    <!-- Client Error -->
    <rect x="230" y="550" width="120" height="50" class="box" />
    <text x="290" y="575" class="text">Clientseitiger Fehler</text>
    
    <!-- Server Error -->
    <rect x="380" y="550" width="120" height="50" class="box" />
    <text x="440" y="575" class="text">Serverseitiger Fehler</text>
    
    <!-- Redirect Login -->
    <rect x="460" y="430" width="120" height="50" class="box" />
    <text x="520" y="455" class="text">Zu Login umleiten</text>
    
    <!-- Data Cleansing -->
    <rect x="610" y="430" width="120" height="50" class="box" />
    <text x="670" y="455" class="text">Datenbereinigung</text>
    
    <!-- State Restore -->
    <rect x="150" y="430" width="120" height="50" class="box" />
    <text x="210" y="455" class="text">Zustand wiederherstellen</text>
    
    <!-- Log Error -->
    <rect x="325" y="630" width="150" height="50" class="box" />
    <text x="400" y="655" class="text">Fehler protokollieren</text>
    
    <!-- Severity Decision -->
    <polygon points="400,720 450,770 400,820 350,770" class="decision" />
    <text x="400" y="770" class="text">Schweregrad?</text>
    
    <!-- Critical -->
    <rect x="100" y="830" width="120" height="50" class="box severity-critical" />
    <text x="160" y="855" class="text">Modaler Dialog</text>
    
    <!-- Error -->
    <rect x="250" y="830" width="120" height="50" class="box severity-error" />
    <text x="310" y="855" class="text">Banner-Benachrichtigung</text>
    
    <!-- Warning -->
    <rect x="400" y="830" width="120" height="50" class="box severity-warning" />
    <text x="460" y="855" class="text">Toast-Benachrichtigung</text>
    
    <!-- Info -->
    <rect x="550" y="830" width="120" height="50" class="box severity-info" />
    <text x="610" y="855" class="text">Inline-Hinweis</text>
    
    <!-- User Action Required -->
    <rect x="160" y="900" width="150" height="50" class="box" />
    <text x="235" y="925" class="text">Benutzeraktion erforderlich</text>
    
    <!-- Auto Recovery -->
    <rect x="480" y="900" width="150" height="50" class="box" />
    <text x="555" y="925" class="text">Automatische Wiederherstellung</text>
    
    <!-- Arrows -->
    <!-- Start to Error Type -->
    <path d="M 410 80 L 410 130" class="arrow" />
    
    <!-- Error Type to Categories -->
    <path d="M 360 180 L 160 260" class="arrow" />
    <path d="M 385 205 L 310 260" class="arrow" />
    <path d="M 410 230 L 460 260" class="arrow" />
    <path d="M 435 205 L 610 260" class="arrow" />
    <path d="M 372 192 L 235 340" class="arrow" />
    <path d="M 448 192 L 535 340" class="arrow" />
    
    <!-- Network to Online Decision -->
    <path d="M 160 310 L 160 420" class="arrow" />
    
    <!-- Online Decision to Outcomes -->
    <path d="M 110 470 L 80 470 L 80 550" class="arrow" />
    <path d="M 210 470 L 270 470 L 270 550" class="arrow" />
    
    <!-- API to Status Code Decision -->
    <path d="M 310 310 L 310 420" class="arrow" />
    
    <!-- Status Code Decision to Outcomes -->
    <path d="M 260 470 L 230 470 L 230 550" class="arrow" />
    <path d="M 360 470 L 440 470 L 440 550" class="arrow" />
    
    <!-- Auth to Login -->
    <path d="M 460 310 L 520 350 L 520 430" class="arrow" />
    
    <!-- Data to Cleansing -->
    <path d="M 610 310 L 670 350 L 670 430" class="arrow" />
    
    <!-- App to State Restore -->
    <path d="M 235 390 L 210 430" class="arrow" />
    
    <!-- All treatments to Log Error -->
    <path d="M 120 600 L 120 655 L 325 655" class="arrow" />
    <path d="M 270 600 L 270 655 L 325 655" class="arrow" />
    <path d="M 440 600 L 440 655 L 475 655" class="arrow" />
    <path d="M 520 480 L 520 655 L 475 655" class="arrow" />
    <path d="M 670 480 L 670 655 L 475 655" class="arrow" />
    <path d="M 210 480 L 210 655 L 325 655" class="arrow" />
    <path d="M 535 390 L 535 655 L 475 655" class="arrow" />
    
    <!-- Log Error to Severity Decision -->
    <path d="M 400 680 L 400 720" class="arrow" />
    
    <!-- Severity Decision to Notification Types -->
    <path d="M 350 770 L 160 830" class="arrow" />
    <path d="M 380 790 L 310 830" class="arrow" />
    <path d="M 420 790 L 460 830" class="arrow" />
    <path d="M 450 770 L 610 830" class="arrow" />
    
    <!-- Notification Types to Next Steps -->
    <path d="M 160 880 L 160 925 L 160 925" class="arrow" />
    <path d="M 310 880 L 310 925 L 480 925" class="arrow" />
    <path d="M 460 880 L 460 925 L 480 925" class="arrow" />
    <path d="M 610 880 L 610 925 L 630 925" class="arrow" />
    
    <!-- Labels -->
    <text x="360" y="100" class="label">Fehler aufgetreten</text>
    <text x="260" y="160" class="label">Kategorisierung</text>
    <text x="85" y="450" class="label">Ja</text>
    <text x="230" y="450" class="label">Nein</text>
    <text x="245" y="450" class="label">4xx</text>
    <text x="370" y="450" class="label">5xx</text>
    <text x="330" y="700" class="label">Protokollierung</text>
    <text x="330" y="800" class="label">CRITICAL</text>
    <text x="380" y="830" class="label">ERROR</text>
    <text x="430" y="800" class="label">WARNING</text>
    <text x="480" y="830" class="label">INFO</text>
</svg>