<?xml version="1.0" encoding="UTF-8" standalone="no"?>
<svg width="512" height="512" viewBox="0 0 512 512" fill="none" xmlns="http://www.w3.org/2000/svg">
  <g clip-path="url(#clip0_123_456)">
    <path d="M256 512C397.385 512 512 397.385 512 256C512 114.615 397.385 0 256 0C114.615 0 0 114.615 0 256C0 397.385 114.615 512 256 512Z" fill="white"/>
    <path d="M256 486C383.025 486 486 383.025 486 256C486 128.975 383.025 26 256 26C128.975 26 26 128.975 26 256C26 383.025 128.975 486 256 486Z" fill="#E30613"/>
    <path d="M380.8 256C380.8 329.536 321.536 388.8 248 388.8C174.464 388.8 115.2 329.536 115.2 256C115.2 182.464 174.464 123.2 248 123.2C321.536 123.2 380.8 182.464 380.8 256Z" fill="white"/>
    <path d="M248 132.266C179.453 132.266 124.266 187.453 124.266 256C124.266 324.547 179.453 379.734 248 379.734C316.547 379.734 371.734 324.547 371.734 256C371.734 187.453 316.547 132.266 248 132.266ZM248 370.667C184.454 370.667 133.333 319.546 133.333 256C133.333 192.454 184.454 141.333 248 141.333C311.546 141.333 362.667 192.454 362.667 256C362.667 319.546 311.546 370.667 248 370.667Z" fill="#E30613"/>
    <path d="M248 158.933C194.187 158.933 150.933 202.187 150.933 256C150.933 309.813 194.187 353.067 248 353.067C301.813 353.067 345.067 309.813 345.067 256C345.067 202.187 301.813 158.933 248 158.933ZM248 344C199.174 344 160 304.826 160 256C160 207.174 199.174 168 248 168C296.826 168 336 207.174 336 256C336 304.826 296.826 344 248 344Z" fill="#E30613"/>
    <path d="M248 184C208.235 184 176 216.235 176 256C176 295.765 208.235 328 248 328C287.765 328 320 295.765 320 256C320 216.235 287.765 184 248 184ZM248 318.933C213.216 318.933 185.067 290.784 185.067 256C185.067 221.216 213.216 193.067 248 193.067C282.784 193.067 310.933 221.216 310.933 256C310.933 290.784 282.784 318.933 248 318.933Z" fill="#E30613"/>
    <path d="M248 208.533C221.716 208.533 200.533 229.716 200.533 256C200.533 282.284 221.716 303.467 248 303.467C274.284 303.467 295.467 282.284 295.467 256C295.467 229.716 274.284 208.533 248 208.533ZM248 294.4C226.705 294.4 209.6 277.295 209.6 256C209.6 234.705 226.705 217.6 248 217.6C269.295 217.6 286.4 234.705 286.4 256C286.4 277.295 269.295 294.4 248 294.4Z" fill="#E30613"/>
    <path d="M248 226.133C231.193 226.133 217.6 239.726 217.6 256.533C217.6 273.34 231.193 286.933 248 286.933C264.807 286.933 278.4 273.34 278.4 256.533C278.4 239.726 264.807 226.133 248 226.133Z" fill="#E30613"/>
  </g>
  <defs>
    <clipPath id="clip0_123_456">
      <rect width="512" height="512" fill="white"/>
    </clipPath>
  </defs>
</svg>