<?xml version="1.0" encoding="UTF-8" standalone="no"?>
<svg width="800" height="400" viewBox="0 0 800 400" xmlns="http://www.w3.org/2000/svg">
  <style>
    .chart-title {
      font-family: Arial, sans-serif;
      font-size: 20px;
      font-weight: bold;
      text-anchor: middle;
    }
    .axis-label {
      font-family: Arial, sans-serif;
      font-size: 14px;
      font-weight: bold;
      text-anchor: middle;
    }
    .axis-tick {
      font-family: Arial, sans-serif;
      font-size: 12px;
      text-anchor: end;
    }
    .legend-text {
      font-family: Arial, sans-serif;
      font-size: 12px;
    }
    .graph-bar-before {
      fill: #ff9494;
    }
    .graph-bar-after {
      fill: #94d3ff;
    }
    .percent-label {
      font-family: Arial, sans-serif;
      font-size: 12px;
      font-weight: bold;
      text-anchor: middle;
    }
  </style>

  <!-- Background -->
  <rect width="800" height="400" fill="#f9f9f9" />

  <!-- Title -->
  <text x="400" y="30" class="chart-title">Performance-Verbesserungen nach Optimierung</text>

  <!-- Y-Axis Label -->
  <text x="30" y="200" class="axis-label" transform="rotate(-90, 30, 200)">Metrik-Wert (relativ)</text>

  <!-- X-Axis Label -->
  <text x="400" y="380" class="axis-label">Leistungsmetriken</text>

  <!-- X-Axis -->
  <line x1="100" y1="320" x2="700" y2="320" stroke="#333" stroke-width="2" />

  <!-- Y-Axis -->
  <line x1="100" y1="80" x2="100" y2="320" stroke="#333" stroke-width="2" />

  <!-- Y-Axis Ticks -->
  <line x1="95" y1="320" x2="100" y2="320" stroke="#333" stroke-width="2" />
  <text x="90" y="325" class="axis-tick">0%</text>
  
  <line x1="95" y1="260" x2="100" y2="260" stroke="#333" stroke-width="2" />
  <text x="90" y="265" class="axis-tick">25%</text>
  
  <line x1="95" y1="200" x2="100" y2="200" stroke="#333" stroke-width="2" />
  <text x="90" y="205" class="axis-tick">50%</text>
  
  <line x1="95" y1="140" x2="100" y2="140" stroke="#333" stroke-width="2" />
  <text x="90" y="145" class="axis-tick">75%</text>
  
  <line x1="95" y1="80" x2="100" y2="80" stroke="#333" stroke-width="2" />
  <text x="90" y="85" class="axis-tick">100%</text>

  <!-- Data: DOM Operations -->
  <g transform="translate(150, 0)">
    <rect x="-30" y="85" width="30" height="235" class="graph-bar-before" />
    <rect x="5" y="235" width="30" height="85" class="graph-bar-after" />
    <text x="-15" y="340" class="axis-tick">DOM-Ops</text>
    <text x="-15" y="70" class="percent-label">-73%</text>
  </g>

  <!-- Data: Memory Usage -->
  <g transform="translate(250, 0)">
    <rect x="-30" y="130" width="30" height="190" class="graph-bar-before" />
    <rect x="5" y="204" width="30" height="116" class="graph-bar-after" />
    <text x="-15" y="340" class="axis-tick">Speicher</text>
    <text x="-15" y="115" class="percent-label">-42%</text>
  </g>

  <!-- Data: API Response -->
  <g transform="translate(350, 0)">
    <rect x="-30" y="100" width="30" height="220" class="graph-bar-before" />
    <rect x="5" y="224" width="30" height="96" class="graph-bar-after" />
    <text x="-15" y="340" class="axis-tick">API-Zeit</text>
    <text x="-15" y="85" class="percent-label">-58%</text>
  </g>

  <!-- Data: Interaction Time -->
  <g transform="translate(450, 0)">
    <rect x="-30" y="105" width="30" height="215" class="graph-bar-before" />
    <rect x="5" y="207" width="30" height="113" class="graph-bar-after" />
    <text x="-15" y="340" class="axis-tick">UI-Reaktion</text>
    <text x="-15" y="90" class="percent-label">-45%</text>
  </g>

  <!-- Data: Time to Interactive -->
  <g transform="translate(550, 0)">
    <rect x="-30" y="80" width="30" height="240" class="graph-bar-before" />
    <rect x="5" y="204" width="30" height="116" class="graph-bar-after" />
    <text x="-15" y="340" class="axis-tick">TTI</text>
    <text x="-15" y="65" class="percent-label">-67%</text>
  </g>

  <!-- Data: Bundle Size -->
  <g transform="translate(650, 0)">
    <rect x="-30" y="160" width="30" height="160" class="graph-bar-before" />
    <rect x="5" y="240" width="30" height="80" class="graph-bar-after" />
    <text x="-15" y="340" class="axis-tick">Bundle</text>
    <text x="-15" y="145" class="percent-label">-30%</text>
  </g>

  <!-- Legend -->
  <rect x="550" y="30" width="15" height="15" class="graph-bar-before" />
  <text x="575" y="42" class="legend-text">Vor Optimierung</text>
  
  <rect x="550" y="55" width="15" height="15" class="graph-bar-after" />
  <text x="575" y="67" class="legend-text">Nach Optimierung</text>
</svg>